<svg id="Layer_1" data-name="Layer 1" xmlns="http://www.w3.org/2000/svg" viewBox="0 0 475.76 55.11"><defs><style>.cls-1{fill:#fff;}</style></defs><title>Zions_White</title><path class="cls-1" d="M48,4.55,14,48.61H36.39c3.53,0,4.76-.5,10.54-7.79H48c-1,2.53-3.83,8.8-5,14.29a13.16,13.16,0,0,0-7.37-1.74H0l34.87-45H8.74c-1.81,0-2.68.28-4.77,6.48H3V0c3,3.1,3.11,3.76,5.2,3.76.58,0,32.05-.08,40.36-.08Z"/><path class="cls-1" d="M51.93,53.38v-1c7.87-1.94,8-2.3,8-4.76V9.27c0-2.61-.08-2.61-8-4.71V3.47H76.32V4.56c-8,2.32-7.94,2.39-7.94,4.71V47.58c0,2.75,0,2.75,8,4.76v1Z"/><path class="cls-1" d="M123.36,29.19c0,10.74-8.22,20.05-19,20.05-13.33,0-19.75-11.62-19.75-20,0-11.11,6.78-22.07,20-21.93S123.36,18.51,123.36,29.19Zm8.36-.07c0-16.66-13.12-26.33-26.89-26.33-14.34,0-28.68,8.15-28.68,26.11,0,16.37,14.2,25,27.75,25C118,54,131.72,43.68,131.72,29.12Z"/><path class="cls-1" d="M186.44,9.4v44h-4.56L145.07,17.57c-.58-.64-.79-.57-.79-.07V47.73c0,2.38,0,2.31,7.88,4.61v1h-20.6v-1c7.94-2.23,8-2.23,8-4.61V3.47h4.21l37.31,36.74c.43.43.65.07.65.07V9.33c0-2.24.07-2.31-7.89-4.77v-1h20.53V4.63C186.44,7,186.44,7.09,186.44,9.4Z"/><path class="cls-1" d="M211,54.76A28.43,28.43,0,0,1,197.32,52L197,38.7H198c2.6,7.7,3.61,8,4.84,8.77a15.65,15.65,0,0,0,7.64,2.45c4.61,0,8.87-2.66,8.8-7.26C219.1,32.3,196,31.58,196,17.48c0-9.14,8.52-14.69,17.68-14.69a32.33,32.33,0,0,1,10.73,1.66l-.57,13.17h-1c-2.52-6.83-2.09-7-3.39-8.13a8.84,8.84,0,0,0-6.13-1.94c-5.83.15-9.29,3-9.29,8.42,0,9.49,24,12.59,23.64,25.32C227.39,52,216.72,54.69,211,54.76Z"/><path class="cls-1" d="M284.07,15.6c0,3.11-1.3,6.07-5.43,8.16,0,0-4.49,1.59-7.46,1.16-1-.07-1.23-.07-1.23-1.45V10.26c0-1.81,3.62-2.1,6.08-1.95C280.52,8.6,284.07,11.63,284.07,15.6Zm11,23.76c0-6.57-5.26-11.91-12.06-13.14,5.5-.8,9-6.65,9-11.41,0-6.86-8-11.2-13.3-11.2h-25.2v1c7.86,2.45,7.94,2.45,7.94,4.84V47.59c0,2,0,2-7.94,4.75v1h25.27C287.18,53.38,295.11,50.19,295.11,39.36Zm-8.51.51c.08,5.63-3.25,7.14-5.86,8.08a18.77,18.77,0,0,1-8.84.65c-.94-.29-1.95-.22-1.95-1.88V30.91c0-2.46,6.52-1.59,8.32-1C283.42,31.56,286.53,34.16,286.6,39.87Z"/><path class="cls-1" d="M387.62,3.55v1c7.95,2.46,7.88,2.53,7.88,4.77v31s-.21.36-.65-.07L357.54,3.47h-4.2V47.73c0,2-.07,2.32-4.64,3.65h0a8,8,0,0,1-1.77.36,4.93,4.93,0,0,1-1.11-.2c-4.34-1.4-4.49-1.72-5.42-3.89,0,0-7.88-18.95-17-44.18h-4.69c-9.24,24.22-17.4,44.33-17.4,44.33-1,2.31-1.08,2.31-7.87,4.47v1.11h18.12v-.9c-6.35-2.22-6.35-2.66-5.85-3.88.15-.37,5.49-13.32,5.56-13.61H326.6c1.44,3.18,6.07,13.75,6.07,13.75.65,1.45.65,1.45-6,3.6v1h39.25v-1C358,50,358,50.11,358,47.73V17.5c0-.5.22-.57.8.07l36.8,35.81h4.56V9.4c0-2.31,0-2.38,7.94-4.77V3.55ZM313.1,30.22l6.42-16.38c2.1,6.67,3.68,11.67,5.63,16.38Z"/><path class="cls-1" d="M447.15,50.7c-7.73-6.22-9.84-10.71-19.74-20.54-.36-.36-.94-.43-.94.07V47.59c0,2.46.14,2.46,8.08,4.77v1H409.94V52.29c7.88-2.1,7.95-2.17,7.95-4.7V9.19c0-2.24,0-2.32-7.87-4.7v-1h24.67l-.14,1.09C426.47,7,426.47,7,426.47,9.33v16.2c0,.07.43.29.87-.14L445,7.89c1.44-1.45,1.44-1.45-3.6-3.47V3.47h19.07v1c-7,1.88-7,2-9.71,4.7l-16.5,16.27c10.31,8.46,19.52,24.59,31.63,27.84v.91C463.86,54.83,454.34,56.41,447.15,50.7Z"/><path class="cls-1" d="M474.58,48.1a4.06,4.06,0,0,1,1.18,2.9,3.89,3.89,0,0,1-1.2,2.88,4.15,4.15,0,0,1-2.91,1.23,4.15,4.15,0,0,1-4.1-4.11,4.13,4.13,0,0,1,1.24-2.93,3.92,3.92,0,0,1,2.86-1.18A4.07,4.07,0,0,1,474.58,48.1Zm-.34.35a3.6,3.6,0,0,0-2.59-1.07,3.47,3.47,0,0,0-2.52,1A3.64,3.64,0,0,0,468,51a3.59,3.59,0,0,0,1.07,2.54,3.5,3.5,0,0,0,2.53,1.06,3.6,3.6,0,0,0,2.58-1.06,3.52,3.52,0,0,0,1-2.52A3.6,3.6,0,0,0,474.24,48.45Zm-.52,1.43a1.21,1.21,0,0,1-1.1,1.24l1.05,2.16h-.87l-1-2h-1v2H470v-4.7h1.74C473.07,48.58,473.72,49,473.72,49.88Zm-2.91-.78v1.62h.83c.87,0,1.27-.19,1.27-.79s-.41-.83-1.29-.83Z"/></svg>